<svg xmlns="http://www.w3.org/2000/svg" width="36" height="36" viewBox="0 0 36 36" fill="none">
  <g filter="url(#filter0_d)">
    <circle cx="18" cy="18" r="14" transform="rotate(-180 18 18)" fill="white"/>
  </g>
  <mask id="mask0" style="mask-type:alpha" maskUnits="userSpaceOnUse" x="7" y="7" width="22" height="22">
    <rect x="28.5" y="28.5" width="21" height="21" transform="rotate(-180 28.5 28.5)" fill="#D9D9D9"/>
  </mask>
  <g mask="url(#mask0)">
    <path d="M18.35 18L15.288 14.938C15.025 14.675 14.894 14.354 14.894 13.975C14.894 13.596 15.025 13.275 15.288 13.013C15.55 12.75 15.871 12.619 16.25 12.619C16.629 12.619 16.95 12.75 17.213 13.013L21.216 17.016C21.347 17.147 21.449 17.3 21.522 17.475C21.595 17.65 21.631 17.825 21.631 18C21.631 18.175 21.595 18.35 21.522 18.525C21.449 18.7 21.347 18.853 21.216 18.985L17.213 22.988C16.95 23.25 16.629 23.381 16.25 23.381C15.871 23.381 15.55 23.25 15.288 22.988C15.025 22.725 14.894 22.404 14.894 22.025C14.894 21.646 15.025 21.325 15.288 21.063L18.35 18Z" fill="black"/>
  </g>
  <defs>
    <filter id="filter0_d" x="0" y="0" width="36" height="36" filterUnits="userSpaceOnUse" color-interpolation-filters="sRGB">
      <feFlood flood-opacity="0" result="BackgroundImageFix"/>
      <feColorMatrix in="SourceAlpha" type="matrix" values="0 0 0 0 0 0 0 0 0 0 0 0 0 0 0 0 0 0 127 0" result="hardAlpha"/>
      <feOffset/>
      <feGaussianBlur stdDeviation="2"/>
      <feComposite in2="hardAlpha" operator="out"/>
      <feColorMatrix type="matrix" values="0 0 0 0 0 0 0 0 0 0 0 0 0 0 0 0 0 0 0.25 0"/>
      <feBlend mode="normal" in2="BackgroundImageFix" result="effect1_dropShadow"/>
      <feBlend mode="normal" in="SourceGraphic" in2="effect1_dropShadow" result="shape"/>
    </filter>
  </defs>
</svg>
