<svg xmlns="http://www.w3.org/2000/svg" width="40" height="40" viewBox="0 0 40 40" fill="none">
  <circle cx="20" cy="20" r="20" transform="rotate(180 20 20)" fill="white"/>
  <mask id="mask0_1480_95581" style="mask-type:alpha" maskUnits="userSpaceOnUse" x="5" y="5" width="30" height="30">
    <rect x="35" y="35" width="30" height="30" transform="rotate(180 35 35)" fill="#D9D9D9"/>
  </mask>
  <g mask="url(#mask0_1480_95581)">
    <path d="M20.5 20L16.125 15.625C15.75 15.25 15.5625 14.7917 15.5625 14.25C15.5625 13.7083 15.75 13.25 16.125 12.875C16.5 12.5 16.9583 12.3125 17.5 12.3125C18.0417 12.3125 18.5 12.5 18.875 12.875L24.5937 18.5938C24.7812 18.7813 24.9271 19 25.0312 19.25C25.1354 19.5 25.1875 19.75 25.1875 20C25.1875 20.25 25.1354 20.5 25.0312 20.75C24.9271 21 24.7812 21.2188 24.5937 21.4063L18.875 27.125C18.5 27.5 18.0417 27.6875 17.5 27.6875C16.9583 27.6875 16.5 27.5 16.125 27.125C15.75 26.75 15.5625 26.2917 15.5625 25.75C15.5625 25.2083 15.75 24.75 16.125 24.375L20.5 20Z" fill="#1C1B1F"/>
  </g>
</svg>
