<svg xmlns="http://www.w3.org/2000/svg" width="34" height="34" viewBox="0 0 34 34" fill="none">
  <g clip-path="url(#clip0_1368_67978)">
    <path d="M17.0083 0.257812C10.0174 0.257812 7.97286 0.265025 7.57543 0.297994C6.14078 0.417252 5.24805 0.643146 4.27547 1.12739C3.52595 1.49959 2.93483 1.93102 2.35144 2.53581C1.28897 3.63875 0.645052 4.99566 0.411953 6.6086C0.298623 7.39163 0.265654 7.55133 0.258957 11.551C0.256382 12.8842 0.258957 14.6388 0.258957 16.9923C0.258957 23.9777 0.266684 26.0203 0.300168 26.4169C0.416074 27.813 0.635006 28.6913 1.09863 29.6521C1.98466 31.4912 3.67688 32.8718 5.67046 33.3869C6.36074 33.5647 7.12314 33.6626 8.1019 33.7089C8.51659 33.7269 12.7433 33.7398 16.9725 33.7398C21.2018 33.7398 25.4311 33.7347 25.8355 33.7141C26.9688 33.6608 27.6268 33.5724 28.3545 33.3844C30.3609 32.8666 32.0222 31.5066 32.9263 29.6418C33.3809 28.7042 33.6114 27.7924 33.7157 26.4692C33.7384 26.1808 33.7479 21.5812 33.7479 16.9879C33.7479 12.3938 33.7376 7.80272 33.715 7.51424C33.6094 6.16969 33.3788 5.2656 32.9096 4.30999C32.5245 3.52774 32.0969 2.94355 31.4762 2.34624C30.3684 1.28812 29.0136 0.644176 27.3992 0.411328C26.6169 0.298252 26.4611 0.264767 22.4585 0.257812H17.0083Z" fill="url(#paint0_radial_1368_67978)"/>
    <path d="M17.001 4.63672C13.6434 4.63672 13.222 4.6514 11.9032 4.71142C10.5871 4.77169 9.68866 4.98007 8.90256 5.28581C8.08942 5.6016 7.39965 6.02402 6.71246 6.71149C6.02475 7.3987 5.60234 8.08849 5.28553 8.9014C4.97903 9.68778 4.7704 10.5865 4.71116 11.9022C4.65217 13.2209 4.63672 13.6426 4.63672 17.0004C4.63672 20.3581 4.65166 20.7782 4.71141 22.097C4.77194 23.4132 4.98031 24.3116 5.28579 25.0978C5.60183 25.9109 6.02424 26.6007 6.71169 27.2879C7.39862 27.9757 8.08839 28.3991 8.90101 28.7149C9.68763 29.0206 10.5863 29.229 11.9022 29.2893C13.2209 29.3493 13.6421 29.364 16.9995 29.364C20.3574 29.364 20.7775 29.3493 22.0962 29.2893C23.4124 29.229 24.3118 29.0206 25.0984 28.7149C25.9113 28.3991 26.6001 27.9757 27.287 27.2879C27.9747 26.6007 28.3971 25.9109 28.7139 25.098C29.0178 24.3116 29.2265 23.413 29.2883 22.0973C29.3475 20.7785 29.363 20.3581 29.363 17.0004C29.363 13.6426 29.3475 13.2212 29.2883 11.9024C29.2265 10.5862 29.0178 9.68778 28.7139 8.90166C28.3971 8.08849 27.9747 7.3987 27.287 6.71149C26.5993 6.02376 25.9116 5.60134 25.0977 5.28581C24.3095 4.98007 23.4106 4.77169 22.0944 4.71142C20.7757 4.6514 20.3558 4.63672 16.9971 4.63672H17.001ZM15.8919 6.86475C16.2211 6.86423 16.5884 6.86475 17.001 6.86475C20.302 6.86475 20.6932 6.8766 21.9968 6.93584C23.2022 6.99096 23.8564 7.19239 24.2922 7.36161C24.8692 7.5857 25.2805 7.85358 25.713 8.28631C26.1457 8.71904 26.4136 9.13116 26.6382 9.70813C26.8074 10.1434 27.0091 10.7977 27.0639 12.0031C27.1232 13.3065 27.1361 13.698 27.1361 16.9975C27.1361 20.2971 27.1232 20.6886 27.0639 21.9919C27.0088 23.1974 26.8074 23.8516 26.6382 24.2869C26.4141 24.8639 26.1457 25.2747 25.713 25.7072C25.2803 26.1399 24.8695 26.4078 24.2922 26.6319C23.857 26.8019 23.2022 27.0028 21.9968 27.0579C20.6935 27.1172 20.302 27.13 17.001 27.13C13.6998 27.13 13.3085 27.1172 12.0052 27.0579C10.7998 27.0023 10.1456 26.8009 9.70952 26.6316C9.13257 26.4075 8.72046 26.1397 8.28774 25.7069C7.85503 25.2742 7.58716 24.8631 7.36256 24.2859C7.19334 23.8506 6.99166 23.1963 6.9368 21.9909C6.87756 20.6876 6.86571 20.296 6.86571 16.9944C6.86571 13.6928 6.87756 13.3034 6.9368 12C6.99192 10.7946 7.19334 10.1403 7.36256 9.70452C7.58664 9.12755 7.85503 8.71543 8.28774 8.2827C8.72046 7.84998 9.13257 7.5821 9.70952 7.35749C10.1453 7.18749 10.7998 6.98658 12.0052 6.9312C13.1457 6.87969 13.5877 6.86423 15.8919 6.86166V6.86475ZM23.6004 8.91763C22.7814 8.91763 22.1168 9.5814 22.1168 10.4007C22.1168 11.2198 22.7814 11.8844 23.6004 11.8844C24.4195 11.8844 25.084 11.2198 25.084 10.4007C25.084 9.58166 24.4195 8.91711 23.6004 8.91711V8.91763ZM17.001 10.6511C13.4947 10.6511 10.652 13.494 10.652 17.0004C10.652 20.5067 13.4947 23.3483 17.001 23.3483C20.5073 23.3483 23.349 20.5067 23.349 17.0004C23.349 13.494 20.5073 10.6511 17.001 10.6511ZM17.001 12.8791C19.2769 12.8791 21.1221 14.7242 21.1221 17.0004C21.1221 19.2763 19.2769 21.1216 17.001 21.1216C14.7249 21.1216 12.8799 19.2763 12.8799 17.0004C12.8799 14.7242 14.7249 12.8791 17.001 12.8791Z" fill="white"/>
  </g>
  <defs>
    <radialGradient id="paint0_radial_1368_67978" cx="0" cy="0" r="1" gradientUnits="userSpaceOnUse" gradientTransform="translate(9.15367 36.3186) rotate(-90) scale(33.1831 30.8704)">
      <stop stop-color="#FFDD55"/>
      <stop offset="0.1" stop-color="#FFDD55"/>
      <stop offset="0.5" stop-color="#FF543E"/>
      <stop offset="1" stop-color="#C837AB"/>
  </radialGradient>
    <radialGradient id="paint1_radial_1368_67978" cx="0" cy="0" r="1" gradientUnits="userSpaceOnUse" gradientTransform="translate(-5.35196 2.6698) rotate(78.678) scale(14.8331 61.1565)">
      <stop stop-color="#3771C8"/>
      <stop offset="0.128" stop-color="#3771C8"/>
      <stop offset="1" stop-color="#6600FF" stop-opacity="0"/>
  </radialGradient>
    <clipPath id="clip0_1368_67978">
      <rect width="34" height="34" fill="white"/>
    </clipPath>
  </defs>
</svg>