<svg xmlns="http://www.w3.org/2000/svg" width="40" height="40" viewBox="0 0 40 40" fill="none">
  <circle cx="20" cy="20" r="20" fill="white"/>
  <mask id="mask0_1480_95631" style="mask-type:alpha" maskUnits="userSpaceOnUse" x="5" y="5" width="30" height="30">
    <rect x="5" y="5" width="30" height="30" fill="#D9D9D9"/>
  </mask>
  <g mask="url(#mask0_1480_95631)">
    <path d="M19.5 20L23.875 24.375C24.25 24.75 24.4375 25.2083 24.4375 25.75C24.4375 26.2917 24.25 26.75 23.875 27.125C23.5 27.5 23.0417 27.6875 22.5 27.6875C21.9583 27.6875 21.5 27.5 21.125 27.125L15.4062 21.4062C15.2188 21.2188 15.0729 21 14.9688 20.75C14.8646 20.5 14.8125 20.25 14.8125 20C14.8125 19.75 14.8646 19.5 14.9688 19.25C15.0729 19 15.2188 18.7812 15.4062 18.5938L21.125 12.875C21.5 12.5 21.9583 12.3125 22.5 12.3125C23.0417 12.3125 23.5 12.5 23.875 12.875C24.25 13.25 24.4375 13.7083 24.4375 14.25C24.4375 14.7917 24.25 15.25 23.875 15.625L19.5 20Z" fill="#1C1B1F"/>
  </g>
</svg>
