<svg width="26" height="26" viewBox="0 0 26 26" fill="none" xmlns="http://www.w3.org/2000/svg">
<g clip-path="url(#clip0_3313_31035)">
  <path d="M12.8129 25.6258C19.89 25.6258 25.6258 19.89 25.6258 12.8129C25.6258 5.73578 19.89 0 12.8129 0C5.73578 0 0 5.73578 0 12.8129C0 19.89 5.73578 25.6258 12.8129 25.6258Z" fill="black"/>
  <path d="M8.75882 8.75882C9.22929 8.28835 9.99006 8.28835 10.4555 8.75882L12.8079 11.1112L15.1603 8.75882C15.6307 8.28835 16.3915 8.28835 16.857 8.75882C17.3224 9.22929 17.3274 9.99006 16.857 10.4555L14.5046 12.8079L16.857 15.1603C17.3274 15.6307 17.3274 16.3915 16.857 16.857C16.3865 17.3224 15.6257 17.3274 15.1603 16.857L12.8079 14.5046L10.4555 16.857C9.98505 17.3274 9.22429 17.3274 8.75882 16.857C8.29335 16.3865 8.28835 15.6257 8.75882 15.1603L11.1112 12.8079L8.75882 10.4555C8.28835 9.98505 8.28835 9.22429 8.75882 8.75882Z" fill="white"/>
</g>
<defs>
<clipPath id="clip0_3313_31035">
  <rect width="25.6258" height="25.6258" rx="12.8129"/>
</clipPath>
</defs>
</svg>