<svg xmlns="http://www.w3.org/2000/svg" width="7" height="5" viewBox="0 0 7 5" fill="none">
    <path d="M3.5 2.55195L5.49187 0.733766C5.6626 0.577922 5.87127 0.5 6.11789 0.5C6.3645 0.5 6.57317 0.577922 6.7439 0.733766C6.91463 0.88961 7 1.08009 7 1.30519C7 1.5303 6.91463 1.72078 6.7439 1.87662L4.14024 4.25325C4.05488 4.33117 3.95528 4.39177 3.84146 4.43506C3.72764 4.47836 3.61382 4.5 3.5 4.5C3.38618 4.5 3.27236 4.47836 3.15854 4.43506C3.04472 4.39177 2.94512 4.33117 2.85976 4.25325L0.256098 1.87662C0.0853659 1.72078 3.54133e-08 1.5303 3.80977e-08 1.30519C4.07821e-08 1.08009 0.0853659 0.88961 0.256098 0.733766C0.426829 0.577922 0.635501 0.5 0.882114 0.5C1.12873 0.5 1.3374 0.577922 1.50813 0.733766L3.5 2.55195Z" fill="#201C1F"/>
</svg>
