<svg width="37" height="30" viewBox="0 0 37 30" fill="none" xmlns="http://www.w3.org/2000/svg">
<path d="M3.7 30C2.6825 30 1.81146 29.6328 1.08688 28.8984C0.362292 28.1641 0 27.2812 0 26.25V3.75C0 2.71875 0.362292 1.83594 1.08688 1.10156C1.81146 0.367188 2.6825 0 3.7 0H33.3C34.3175 0 35.1885 0.367188 35.9131 1.10156C36.6377 1.83594 37 2.71875 37 3.75V26.25C37 27.2812 36.6377 28.1641 35.9131 28.8984C35.1885 29.6328 34.3175 30 33.3 30H3.7ZM18.5 16.875L3.7 7.5V26.25H33.3V7.5L18.5 16.875ZM18.5 13.125L33.3 3.75H3.7L18.5 13.125ZM3.7 7.5V3.75V26.25V7.5Z" fill="#F8C614"/>
</svg>
