<svg width="40" height="40" viewBox="0 0 40 40" fill="none" xmlns="http://www.w3.org/2000/svg">
<path d="M11.1111 12.2222C10.0897 12.2222 9.07833 12.4233 8.13468 12.8142C7.19104 13.2051 6.33362 13.778 5.61139 14.5002C4.88916 15.2225 4.31625 16.0799 3.92538 17.0235C3.53451 17.9672 3.33333 18.9786 3.33333 19.9999C3.33333 21.0213 3.53451 22.0327 3.92538 22.9764C4.31625 23.92 4.88916 24.7774 5.61139 25.4997C6.33362 26.2219 7.19104 26.7948 8.13468 27.1857C9.07833 27.5765 10.0897 27.7777 11.1111 27.7777C12.1325 27.7777 13.1439 27.5765 14.0875 27.1857C15.0312 26.7948 15.8886 26.2219 16.6108 25.4997C17.3331 24.7774 17.906 23.92 18.2968 22.9764C18.6877 22.0327 18.8889 21.0213 18.8889 19.9999C18.8889 18.9786 18.6877 17.9672 18.2968 17.0235C17.906 16.0799 17.3331 15.2225 16.6108 14.5002C15.8886 13.778 15.0312 13.2051 14.0875 12.8142C13.1439 12.4233 12.1325 12.2222 11.1111 12.2222Z" fill="#212121"/>
<path d="M28.8889 12.2222C27.8675 12.2222 26.8561 12.4233 25.9125 12.8142C24.9688 13.2051 24.1114 13.778 23.3892 14.5002C22.6669 15.2225 22.094 16.0799 21.7032 17.0235C21.3123 17.9672 21.1111 18.9786 21.1111 19.9999C21.1111 21.0213 21.3123 22.0327 21.7032 22.9764C22.094 23.92 22.6669 24.7774 23.3892 25.4997C24.1114 26.2219 24.9688 26.7948 25.9125 27.1857C26.8561 27.5765 27.8675 27.7777 28.8889 27.7777C29.9103 27.7777 30.9217 27.5765 31.8653 27.1857C32.809 26.7948 33.6664 26.2219 34.3886 25.4997C35.1108 24.7774 35.6837 23.92 36.0746 22.9764C36.4655 22.0327 36.6667 21.0213 36.6667 19.9999C36.6667 18.9786 36.4655 17.9672 36.0746 17.0235C35.6837 16.0799 35.1108 15.2225 34.3886 14.5002C33.6664 13.778 32.809 13.2051 31.8653 12.8142C30.9217 12.4233 29.9103 12.2222 28.8889 12.2222Z" fill="#212121"/>
</svg>
