<svg width="20" height="20" viewBox="0 0 20 20" fill="none" xmlns="http://www.w3.org/2000/svg">
  <g filter="url(#filter0_d_933_52650)">
    <path d="M9.99722 4.26136C11.8667 4.26136 12.0861 4.2697 12.825 4.30304C13.5083 4.3336 13.8778 4.44751 14.125 4.54475C14.4528 4.67255 14.6861 4.82258 14.9306 5.06708C15.175 5.31157 15.3278 5.54495 15.4528 5.87279C15.5472 6.12006 15.6639 6.48958 15.6944 7.17305C15.7278 7.91209 15.7361 8.13157 15.7361 10.0014C15.7361 11.8712 15.7278 12.0907 15.6944 12.8297C15.6639 13.5132 15.55 13.8827 15.4528 14.13C15.325 14.4578 15.175 14.6912 14.9306 14.9357C14.6861 15.1802 14.4528 15.333 14.125 15.458C13.8778 15.5525 13.5083 15.6692 12.825 15.6997C12.0861 15.7331 11.8667 15.7414 9.99722 15.7414C8.12778 15.7414 7.90833 15.7331 7.16944 15.6997C6.48611 15.6692 6.11667 15.5553 5.86944 15.458C5.54167 15.3302 5.30833 15.1802 5.06389 14.9357C4.81944 14.6912 4.66667 14.4578 4.54167 14.13C4.44722 13.8827 4.33056 13.5132 4.3 12.8297C4.26667 12.0907 4.25833 11.8712 4.25833 10.0014C4.25833 8.13157 4.26667 7.91209 4.3 7.17305C4.33056 6.48958 4.44444 6.12006 4.54167 5.87279C4.66944 5.54495 4.81944 5.31157 5.06389 5.06708C5.30833 4.82258 5.54167 4.66978 5.86944 4.54475C6.11667 4.45029 6.48611 4.3336 7.16944 4.30304C7.90833 4.26692 8.13056 4.26136 9.99722 4.26136ZM9.99722 3C8.09722 3 7.85833 3.00833 7.11111 3.04167C6.36667 3.07501 5.85833 3.19448 5.41389 3.36674C4.95278 3.54455 4.56389 3.78627 4.175 4.17523C3.78611 4.5642 3.54722 4.95594 3.36667 5.41437C3.19444 5.8589 3.075 6.36734 3.04167 7.11471C3.00833 7.8593 3 8.09823 3 9.99861C3 11.899 3.00833 12.1379 3.04167 12.8853C3.075 13.6299 3.19444 14.1383 3.36667 14.5856C3.54444 15.0468 3.78611 15.4358 4.175 15.8248C4.56389 16.2137 4.95556 16.4527 5.41389 16.6333C5.85833 16.8055 6.36667 16.925 7.11389 16.9583C7.86111 16.9917 8.09722 17 10 17C11.9028 17 12.1389 16.9917 12.8861 16.9583C13.6306 16.925 14.1389 16.8055 14.5861 16.6333C15.0472 16.4554 15.4361 16.2137 15.825 15.8248C16.2139 15.4358 16.4528 15.0441 16.6333 14.5856C16.8056 14.1411 16.925 13.6327 16.9583 12.8853C16.9917 12.1379 17 11.9018 17 9.99861C17 8.09546 16.9917 7.8593 16.9583 7.11193C16.925 6.36733 16.8056 5.8589 16.6333 5.41159C16.4556 4.95039 16.2139 4.56142 15.825 4.17245C15.4361 3.78349 15.0444 3.54455 14.5861 3.36396C14.1417 3.1917 13.6333 3.07224 12.8861 3.0389C12.1361 3.00833 11.8972 3 9.99722 3Z" fill="white"/>
    <path d="M9.9952 6.40625C8.01187 6.40625 6.40076 8.0149 6.40076 10.0014C6.40076 11.9879 8.00909 13.5966 9.9952 13.5966C11.9813 13.5966 13.5896 11.9879 13.5896 10.0014C13.5896 8.0149 11.9813 6.40625 9.9952 6.40625ZM9.9952 12.3324C8.70631 12.3324 7.66187 11.2878 7.66187 9.99863C7.66187 8.70948 8.70631 7.66483 9.9952 7.66483C11.2841 7.66483 12.3285 8.70948 12.3285 9.99863C12.3285 11.2878 11.2841 12.3324 9.9952 12.3324Z" fill="white"/>
    <path d="M13.7352 7.10032C14.1986 7.10032 14.5742 6.72459 14.5742 6.2611C14.5742 5.79761 14.1986 5.42188 13.7352 5.42188C13.2718 5.42188 12.8961 5.79761 12.8961 6.2611C12.8961 6.72459 13.2718 7.10032 13.7352 7.10032Z" fill="white"/>
  </g>
  <defs>
    <filter id="filter0_d_933_52650" x="0" y="0" width="20" height="20" filterUnits="userSpaceOnUse" color-interpolation-filters="sRGB">
      <feFlood flood-opacity="0" result="BackgroundImageFix"/>
      <feColorMatrix in="SourceAlpha" type="matrix" values="0 0 0 0 0 0 0 0 0 0 0 0 0 0 0 0 0 0 127 0" result="hardAlpha"/>
      <feOffset/>
      <feGaussianBlur stdDeviation="1.5"/>
      <feColorMatrix type="matrix" values="0 0 0 0 0 0 0 0 0 0 0 0 0 0 0 0 0 0 0.25 0"/>
      <feBlend mode="normal" in2="BackgroundImageFix" result="effect1_dropShadow_933_52650"/>
      <feBlend mode="normal" in="SourceGraphic" in2="effect1_dropShadow_933_52650" result="shape"/>
    </filter>
  </defs>
</svg>