<svg xmlns="http://www.w3.org/2000/svg" width="34" height="34" viewBox="0 0 34 34" fill="none"><g clip-path="url(#clip0_1368_67965)"><path d="M34 31.875C34 33.048 33.048 34 31.875 34H2.125C0.952 34 0 33.048 0 31.875V2.125C0 0.952 0.952 0 2.125 0H31.875C33.048 0 34 0.952 34 2.125V31.875Z" fill="#007BB5"/><path d="M11.6875 11.6875H7.4375V26.5625H11.6875V11.6875Z" fill="white"/><path d="M21.7802 11.6875C18.8148 11.6875 18.3047 12.7691 18.0625 13.8125V11.6875H13.8125V26.5625H18.0625V18.0625C18.0625 16.6844 18.8094 15.9375 20.1875 15.9375C21.5326 15.9375 22.3125 16.6685 22.3125 18.0625V26.5625H26.5625V19.125C26.5625 14.875 26.0089 11.6875 21.7802 11.6875Z" fill="white"/><path d="M9.5625 10.625C10.7361 10.625 11.6875 9.67361 11.6875 8.5C11.6875 7.32639 10.7361 6.375 9.5625 6.375C8.38889 6.375 7.4375 7.32639 7.4375 8.5C7.4375 9.67361 8.38889 10.625 9.5625 10.625Z" fill="white"/></g><defs><clipPath id="clip0_1368_67965"><rect width="34" height="34" fill="white"/></clipPath></defs></svg>