<svg width="40" height="40" viewBox="0 0 40 40" fill="none" xmlns="http://www.w3.org/2000/svg">
<g clip-path="url(#clip0_3577_221)">
<path d="M39 37.5C39 38.3277 38.3277 39 37.5 39H2.5C1.67228 39 1 38.3277 1 37.5V2.5C1 1.67228 1.67228 1 2.5 1H37.5C38.3277 1 39 1.67228 39 2.5V37.5Z" stroke="#212121" stroke-width="2"/>
<path d="M13.75 13.75H8.75V31.25H13.75V13.75Z" fill="#212121"/>
<path d="M25.6238 13.75C22.135 13.75 21.535 15.0225 21.25 16.25V13.75H16.25V31.25H21.25V21.25C21.25 19.6287 22.1287 18.75 23.75 18.75C25.3325 18.75 26.25 19.61 26.25 21.25V31.25H31.25V22.5C31.25 17.5 30.5988 13.75 25.6238 13.75Z" fill="#212121"/>
<path d="M11.25 12.5C12.6307 12.5 13.75 11.3807 13.75 10C13.75 8.61929 12.6307 7.5 11.25 7.5C9.86929 7.5 8.75 8.61929 8.75 10C8.75 11.3807 9.86929 12.5 11.25 12.5Z" fill="#212121"/>
</g>
<defs>
<clipPath id="clip0_3577_221">
<rect width="40" height="40" fill="white"/>
</clipPath>
</defs>
</svg>