<svg xmlns="http://www.w3.org/2000/svg" viewBox="0 0 19 19" fill="none"><path d="M2.16578 18.8924C1.61638 18.8924 1.14606 18.6968 0.754824 18.3055C0.363587 17.9143 0.167969 17.444 0.167969 16.8946V2.90992C0.167969 2.36052 0.363587 1.8902 0.754824 1.49897C1.14606 1.10773 1.61638 0.912109 2.16578 0.912109H16.1504C16.6998 0.912109 17.1701 1.10773 17.5614 1.49897C17.9526 1.8902 18.1482 2.36052 18.1482 2.90992V16.8946C18.1482 17.444 17.9526 17.9143 17.5614 18.3055C17.1701 18.6968 16.6998 18.8924 16.1504 18.8924H2.16578ZM2.16578 16.8946H16.1504V2.90992H2.16578V16.8946ZM3.16468 14.8968H15.1515L11.4056 9.90224L8.40892 13.8979L6.16139 10.9011L3.16468 14.8968ZM5.66194 7.90443C6.07815 7.90443 6.43192 7.75876 6.72327 7.46741C7.01462 7.17607 7.16029 6.82229 7.16029 6.40608C7.16029 5.98987 7.01462 5.63609 6.72327 5.34474C6.43192 5.0534 6.07815 4.90772 5.66194 4.90772C5.24573 4.90772 4.89195 5.0534 4.6006 5.34474C4.30926 5.63609 4.16358 5.98987 4.16358 6.82229C4.16358 7.17607 4.30926 7.75876 4.6006 7.46741C4.89195 7.75876 5.24573 7.90443 5.66194 7.90443Z" fill="white"/></svg>