<svg xmlns="http://www.w3.org/2000/svg" width="34" height="34" viewBox="0 0 34 34" fill="none"><g clip-path="url(#clip0_1368_67972)"><path d="M16.993 0C7.59441 0 0 7.60838 0 16.993C0 24.1958 4.47552 30.3497 10.7972 32.8252C10.6434 31.4825 10.5175 29.4126 10.8531 27.9441C11.1608 26.6154 12.8391 19.4965 12.8391 19.4965C12.8391 19.4965 12.3357 18.4755 12.3357 16.979C12.3357 14.6154 13.7063 12.8532 15.4126 12.8532C16.8671 12.8532 17.5664 13.944 17.5664 15.2448C17.5664 16.6993 16.6433 18.8811 16.1538 20.9091C15.7483 22.6014 17.007 23.986 18.6713 23.986C21.6923 23.986 24.014 20.7972 24.014 16.2098C24.014 12.1399 21.0909 9.3007 16.9091 9.3007C12.0699 9.3007 9.23076 12.9231 9.23076 16.6713C9.23076 18.1259 9.7902 19.6923 10.4895 20.5455C10.6294 20.7133 10.6434 20.8671 10.6014 21.035C10.4755 21.5664 10.1818 22.7273 10.1259 22.965C10.0559 23.2727 9.87411 23.3427 9.55244 23.1888C7.45453 22.1818 6.13986 19.0769 6.13986 16.5874C6.13986 11.2308 10.028 6.30768 17.3706 6.30768C23.2588 6.30768 27.8462 10.5035 27.8462 16.1259C27.8462 21.986 24.1538 26.6993 19.035 26.6993C17.3147 26.6993 15.6923 25.8042 15.1469 24.7413C15.1469 24.7413 14.2937 27.986 14.0839 28.7832C13.7063 30.2657 12.6713 32.1119 11.972 33.2448C13.5664 33.7343 15.2448 34 17.007 34C26.3916 34 34 26.3916 34 17.007C33.986 7.60838 26.3776 0 16.993 0Z" fill="#BD081C"/></g><defs><clipPath id="clip0_1368_67972"><rect width="34" height="34" fill="white"/></clipPath></defs></svg>