<svg width="40" height="40" viewBox="0 0 40 40" fill="none" xmlns="http://www.w3.org/2000/svg">
<g clip-path="url(#clip0_3577_182)">
<path fill-rule="evenodd" clip-rule="evenodd" d="M20 38.5C30.2173 38.5 38.5 30.2173 38.5 20C38.5 9.78273 30.2173 1.5 20 1.5C9.78273 1.5 1.5 9.78273 1.5 20C1.5 30.2173 9.78273 38.5 20 38.5ZM20 40C31.0457 40 40 31.0457 40 20C40 8.9543 31.0457 0 20 0C8.9543 0 0 8.9543 0 20C0 31.0457 8.9543 40 20 40Z" fill="#212121"/>
<g clip-path="url(#clip1_3577_182)">
<path d="M18.59 28.68C19.0975 29.4192 19.7833 30.0184 20.5838 30.4222C21.3844 30.826 22.2739 31.0213 23.17 30.99C29.17 30.99 33.53 25.44 33.53 18.55C33.53 11.93 28.14 7 21.21 7C12.57 7 8.01 12.79 8.01 19.09C8.01 22.02 9.55 25.67 12.01 26.86C12.39 27.04 12.61 26.96 12.69 26.59C12.77 26.22 13.1 24.95 13.25 24.32C13.2787 24.2218 13.2819 24.1179 13.2591 24.0181C13.2364 23.9183 13.1885 23.826 13.12 23.75C12.1554 22.4249 11.6339 20.829 11.63 19.19C11.6263 18.0223 11.8591 16.866 12.3144 15.7907C12.7696 14.7154 13.4378 13.7434 14.2788 12.9333C15.1197 12.1232 16.116 11.4917 17.2075 11.077C18.2991 10.6622 19.4633 10.4727 20.63 10.52C25.55 10.52 28.99 13.86 28.99 18.65C28.99 24.04 26.26 27.8 22.7 27.8C22.2426 27.8282 21.7851 27.7481 21.3646 27.566C20.944 27.384 20.5725 27.1052 20.2801 26.7524C19.9877 26.3996 19.7827 25.9827 19.6819 25.5357C19.5811 25.0887 19.5873 24.6242 19.7 24.18C20.28 21.79 21.36 19.18 21.36 17.51C21.4021 17.1611 21.3704 16.8072 21.267 16.4714C21.1636 16.1355 20.9909 15.825 20.7599 15.5601C20.529 15.2953 20.245 15.0818 19.9263 14.9336C19.6076 14.7855 19.2614 14.7059 18.91 14.7C16.91 14.7 15.29 16.77 15.29 19.55C15.2727 20.5804 15.4738 21.6029 15.88 22.55C15.88 22.55 13.88 30.93 13.54 32.49C13.2358 34.3831 13.2156 36.3109 13.48 38.21C13.93 38.39 14.39 38.57 14.86 38.72C15.9281 37.0695 16.7627 35.2792 17.34 33.4C17.59 32.5 18.59 28.68 18.59 28.68Z" fill="#212121"/>
</g>
</g>
<defs>
<clipPath id="clip0_3577_182">
<rect width="40" height="40" fill="white"/>
</clipPath>
<clipPath id="clip1_3577_182">
<rect width="25.54" height="31.68" fill="white" transform="translate(8 7)"/>
</clipPath>
</defs>
</svg>
