<svg width="40" height="41" viewBox="0 0 40 41" fill="none" xmlns="http://www.w3.org/2000/svg">
<g clip-path="url(#clip0_3577_192)">
<path d="M10.3698 35.269C10.3698 38.1278 8.04496 40.4527 5.18521 40.4527C2.32545 40.4527 0.000595093 38.1278 0.000595093 35.269C0.000595093 32.4092 2.32545 30.0844 5.18521 30.0844C8.04496 30.0844 10.3698 32.4102 10.3698 35.269ZM39.9985 40.4536C40.0769 28.5297 34.5634 16.7155 25.3254 9.17488C18.2875 3.29943 9.17526 -0.03097 0.000595093 0.000217084V9.25426C10.8565 9.12857 21.5556 15.0352 27.1314 24.3677C30.0818 29.2093 31.6469 34.7678 31.6564 40.4375H39.9985V40.4536ZM25.8603 40.4536C25.9066 32.7873 22.2625 25.2466 16.3086 20.4391C11.7524 16.7004 5.89306 14.5948 0.00153964 14.6269V22.419C6.41095 22.3405 12.6956 26.0168 15.7586 31.656C17.251 34.354 18.0349 37.3864 18.0371 40.4697H25.8603V40.4536Z" fill="#212121"/>
</g>
<defs>
<clipPath id="clip0_3577_192">
<rect width="40" height="40.4694" fill="white"/>
</clipPath>
</defs>
</svg>
