<svg xmlns="http://www.w3.org/2000/svg" width="19" height="20" viewBox="0 0 19 20" fill="none">
  <g filter="url(#filter0_d)">
    <path d="M12.917 15.835C12.431 15.835 12.017 15.665 11.677 15.324C11.337 14.984 11.167 14.571 11.167 14.085C11.167 14.026 11.181 13.89 11.211 13.676L7.113 11.285C6.957 11.43 6.777 11.545 6.573 11.627C6.369 11.71 6.15 11.751 5.917 11.751C5.431 11.751 5.017 11.581 4.677 11.241C4.337 10.901 4.167 10.487 4.167 10.001C4.167 9.515 4.337 9.102 4.677 8.762C5.017 8.421 5.431 8.251 5.917 8.251C6.15 8.251 6.369 8.293 6.573 8.375C6.777 8.458 6.957 8.572 7.113 8.718L11.211 6.326C11.191 6.258 11.179 6.193 11.174 6.129C11.169 6.066 11.167 5.996 11.167 5.918C11.167 5.432 11.337 5.019 11.677 4.678C12.017 4.338 12.431 4.168 12.917 4.168C13.403 4.168 13.816 4.338 14.156 4.678C14.497 5.019 14.667 5.432 14.667 5.918C14.667 6.404 14.497 6.817 14.156 7.158C13.816 7.498 13.403 7.668 12.917 7.668C12.683 7.668 12.465 7.627 12.261 7.544C12.056 7.461 11.877 7.347 11.721 7.201L7.623 9.593C7.642 9.661 7.655 9.727 7.659 9.79C7.664 9.853 7.667 9.924 7.667 10.001C7.667 10.079 7.664 10.15 7.659 10.213C7.655 10.276 7.642 10.342 7.623 10.41L11.721 12.801C11.877 12.656 12.056 12.541 12.261 12.459C12.465 12.376 12.683 12.335 12.917 12.335C13.403 12.335 13.816 12.505 14.156 12.845C14.497 13.185 14.667 13.599 14.667 14.085C14.667 14.571 14.497 14.984 14.156 15.324C13.816 15.665 13.403 15.835 12.917 15.835ZM12.917 14.668C13.082 14.668 13.221 14.612 13.332 14.5C13.444 14.389 13.5 14.25 13.5 14.085C13.5 13.919 13.444 13.781 13.332 13.669C13.221 13.557 13.082 13.501 12.917 13.501C12.752 13.501 12.613 13.557 12.501 13.669C12.389 13.781 12.333 13.919 12.333 14.085C12.333 14.25 12.389 14.389 12.501 14.5C12.613 14.612 12.752 14.668 12.917 14.668Z" fill="white"/>
  </g>
  <defs>
    <filter id="filter0_d" x="0.167" y="0.168" width="18.5" height="19.668" filterUnits="userSpaceOnUse" color-interpolation-filters="sRGB">
      <feFlood flood-opacity="0" result="BackgroundImageFix"/>
      <feColorMatrix in="SourceAlpha" type="matrix" values="0 0 0 0 0 0 0 0 0 0 0 0 0 0 0 0 0 0 127 0" result="hardAlpha"/>
      <feOffset/>
      <feGaussianBlur stdDeviation="2"/>
      <feComposite in2="hardAlpha" operator="out"/>
      <feColorMatrix type="matrix" values="0 0 0 0 0 0 0 0 0 0 0 0 0 0 0 0 0 0 0.25 0"/>
      <feBlend mode="normal" in2="BackgroundImageFix" result="effect1_dropShadow"/>
      <feBlend mode="normal" in="SourceGraphic" in2="effect1_dropShadow" result="shape"/>
    </filter>
  </defs>
</svg>