<svg xmlns="http://www.w3.org/2000/svg" viewBox="0 0 9 10" fill="none">
  <path d="M7.5 10C7.08333 10 6.72917 9.85417 6.4375 9.5625C6.14583 9.27083 6 8.91667 6 8.5C6 8.45 6.0125 8.33333 6.0375 8.15L2.525 6.1C2.39167 6.225 2.2375 6.32292 2.0625 6.39375C1.8875 6.46458 1.7 6.5 1.5 6.5C1.08333 6.5 0.729167 6.35417 0.4375 6.0625C0.145833 5.77083 0 5.41667 0 5C0 4.58333 0.145833 4.22917 0.4375 3.9375C0.729167 3.64583 1.08333 3.5 1.5 3.5C1.7 3.5 1.8875 3.53542 2.0625 3.60625C2.2375 3.67708 2.39167 3.775 2.525 3.9L6.0375 1.85C6.02083 1.79167 6.01042 1.73542 6.00625 1.68125C6.00208 1.62708 6 1.56667 6 1.5C6 1.08333 6.14583 0.729167 6.4375 0.4375C6.72917 0.145833 7.08333 0 7.5 0C7.91667 0 8.27083 0.145833 8.5625 0.4375C8.85417 0.729167 9 1.08333 9 1.5C9 1.91667 8.85417 2.27083 8.5625 2.5625C8.27083 2.85417 7.91667 3 7.5 3C7.3 3 7.1125 2.96458 6.9375 2.89375C6.7625 2.82292 6.60833 2.725 6.475 2.6L2.9625 4.65C2.97917 4.70833 2.98958 4.76458 2.99375 4.81875C2.99792 4.87292 3 4.93333 3 5C3 5.06667 2.99792 5.12708 2.99375 5.18125C2.98958 5.23542 2.97917 5.29167 2.9625 5.35L6.475 7.4C6.60833 7.275 6.7625 7.17708 6.9375 7.10625C7.1125 7.03542 7.3 7 7.5 7C7.91667 7 8.27083 7.14583 8.5625 7.4375C8.85417 7.72917 9 8.08333 9 8.5C9 8.91667 8.85417 9.27083 8.5625 9.5625C8.27083 9.85417 7.91667 10 7.5 10ZM7.5 9C7.64167 9 7.76042 8.95208 7.85625 8.85625C7.95208 8.76042 8 8.64167 8 8.5C8 8.35833 7.95208 8.23958 7.85625 8.14375C7.76042 8.04792 7.64167 8 7.5 8C7.35833 8 7.23958 8.04792 7.14375 8.14375C7.04792 8.23958 7 8.35833 7 8.5C7 8.64167 7.04792 8.76042 7.14375 8.85625C7.23958 8.95208 7.35833 9 7.5 9ZM1.5 5.5C1.64167 5.5 1.76042 5.45208 1.85625 5.35625C1.95208 5.26042 2 5.14167 2 5C2 4.85833 1.95208 4.73958 1.85625 4.64375C1.76042 4.54792 1.64167 4.5 1.5 4.5C1.35833 4.5 1.23958 4.54792 1.14375 4.64375C1.04792 4.73958 1 4.85833 1 5C1 5.14167 1.04792 5.26042 1.14375 5.35625C1.23958 5.45208 1.35833 5.5 1.5 5.5ZM7.5 2C7.64167 2 7.76042 1.95208 7.85625 1.85625C7.95208 1.76042 8 1.64167 8 1.5C8 1.35833 7.95208 1.23958 7.85625 1.14375C7.76042 1.04792 7.64167 1 7.5 1C7.35833 1 7.23958 1.04792 7.14375 1.14375C7.04792 1.23958 7 1.35833 7 1.5C7 1.64167 7.04792 1.76042 7.14375 1.85625C7.23958 1.95208 7.35833 2 7.5 2Z" fill="#908E8F"/>
</svg>