<svg xmlns="http://www.w3.org/2000/svg" width="7" height="5" viewBox="0 0 7 5" fill="none">
    <path d="M3.5 2.44805L5.49187 4.26623C5.6626 4.42208 5.87127 4.5 6.11789 4.5C6.3645 4.5 6.57317 4.42208 6.7439 4.26623C6.91463 4.11039 7 3.91991 7 3.69481C7 3.4697 6.91463 3.27922 6.7439 3.12338L4.14024 0.746753C4.05488 0.668831 3.95528 0.608225 3.84146 0.564935C3.72764 0.521645 3.61382 0.5 3.5 0.5C3.38618 0.5 3.27236 0.521645 3.15854 0.564935C3.04472 0.608225 2.94512 0.668831 2.85976 0.746753L0.256097 3.12338C0.0853657 3.27922 -1.2981e-07 3.4697 -1.39649e-07 3.69481C-1.49489e-07 3.91991 0.0853657 4.11039 0.256097 4.26623C0.426829 4.42208 0.635501 4.5 0.882114 4.5C1.12873 4.5 1.3374 4.42208 1.50813 4.26623L3.5 2.44805Z" fill="#201C1F"/>
</svg>
