<svg width="12" height="12" viewBox="0 0 12 12" fill="none" xmlns="http://www.w3.org/2000/svg">
<mask id="mask0_1219_155750" style="mask-type:alpha" maskUnits="userSpaceOnUse" x="0" y="0" width="12" height="12">
<rect width="12" height="12" fill="#D9D9D9"/>
</mask>
<g mask="url(#mask0_1219_155750)">
<path d="M7.11111 10.7222V9.58333C7.94444 9.34259 8.61574 8.87963 9.125 8.19444C9.63426 7.50926 9.88889 6.73148 9.88889 5.86111C9.88889 4.99074 9.63426 4.21296 9.125 3.52778C8.61574 2.84259 7.94444 2.37963 7.11111 2.13889V1C8.25926 1.25926 9.19445 1.84028 9.91667 2.74306C10.6389 3.64583 11 4.68519 11 5.86111C11 7.03704 10.6389 8.07639 9.91667 8.97917C9.19445 9.88194 8.25926 10.463 7.11111 10.7222ZM1 7.54167V4.20833H3.22222L6 1.43056V10.3194L3.22222 7.54167H1ZM7.11111 8.09722V3.625C7.5463 3.8287 7.88657 4.13426 8.13195 4.54167C8.37732 4.94907 8.5 5.39352 8.5 5.875C8.5 6.34722 8.37732 6.78472 8.13195 7.1875C7.88657 7.59028 7.5463 7.89352 7.11111 8.09722ZM4.88889 4.125L3.69444 5.31944H2.11111V6.43056H3.69444L4.88889 7.625V4.125Z" fill="white"/>
</g>
</svg>
