<svg width="40" height="40" viewBox="0 0 40 40" fill="none" xmlns="http://www.w3.org/2000/svg">
<g clip-path="url(#clip0_3577_199)">
<path fill-rule="evenodd" clip-rule="evenodd" d="M31.0218 2H8.97818C5.12424 2 2 5.12424 2 8.97818V31.0218C2 34.8758 5.12424 38 8.97818 38H31.0218C34.8758 38 38 34.8758 38 31.0218V8.97818C38 5.12424 34.8758 2 31.0218 2ZM8.97818 0H31.0218C35.9803 0 40 4.01967 40 8.97818V31.0218C40 35.9803 35.9803 40 31.0218 40H8.97818C4.01967 40 0 35.9803 0 31.0218V8.97818C0 4.01967 4.01967 0 8.97818 0Z" fill="#353535"/>
<path d="M30.2736 15.2409C30.0935 19.0927 23.0551 28.8745 18.9816 28.8745C17.7808 28.8745 16.7694 27.7707 15.9473 25.5631C14.3678 19.7439 13.6612 16.1692 12.3034 16.1692C11.7226 16.4111 11.1809 16.7379 10.6962 17.1391L9.72635 15.8921C12.3034 13.6337 14.3817 11.5 15.7672 11.3753C17.356 11.1814 18.3351 12.2667 18.7045 14.6313C19.1756 17.624 19.8684 22.4595 21.0599 22.4595C21.9882 22.4595 24.2605 18.7047 24.3713 17.3469C24.5791 15.4072 22.9858 15.2964 21.4617 15.9614C22.4778 12.6546 24.4175 11.029 27.2809 11.0844C29.3961 11.149 30.3937 12.5346 30.2736 15.2409Z" fill="#353535"/>
</g>
<defs>
<clipPath id="clip0_3577_199">
<rect width="40" height="40" fill="white"/>
</clipPath>
</defs>
</svg>
