<svg width="40" height="40" viewBox="0 0 40 40" fill="none" xmlns="http://www.w3.org/2000/svg">
<path d="M2.9418 26.2826C2.9418 30.9408 9.00748 34.716 16.4861 34.716C23.9647 34.716 30.0304 30.9408 30.0304 26.2826C30.0304 21.6243 23.9647 17.8491 16.4861 17.8491C9.00748 17.8491 2.9418 21.6243 2.9418 26.2826Z" fill="white"/>
<path d="M16.8062 34.0316C10.1831 34.6884 4.46509 31.6915 4.03459 27.3478C3.60409 22.9986 8.62662 18.9475 15.2442 18.2907C21.8674 17.6339 27.5853 20.6308 28.0103 24.9745C28.4463 29.3237 23.4238 33.3803 16.8062 34.0316ZM30.0469 19.5987C29.484 19.4276 29.0976 19.3172 29.3901 18.5777C30.0304 16.9715 30.0966 15.5862 29.4012 14.5927C28.1041 12.7383 24.5497 12.8376 20.4765 14.5431C20.4765 14.5431 19.196 15.1005 19.5272 14.0905C20.1509 12.076 20.057 10.3926 19.0856 9.41567C16.8779 7.20244 10.9999 9.49846 5.96081 14.5376C2.19115 18.3072 0 22.3087 0 25.7693C0 32.3814 8.48312 36.4049 16.7786 36.4049C27.6571 36.4049 34.8928 30.0853 34.8928 25.0683C34.8984 22.0327 32.3429 20.3107 30.0469 19.5987Z" fill="#212121"/>
<path d="M37.2717 7.49499C34.6445 4.58082 30.77 3.47144 27.1935 4.2331C26.3656 4.40972 25.8412 5.22657 26.0179 6.04894C26.1945 6.87684 27.0058 7.40117 27.8337 7.22455C30.3781 6.68366 33.1322 7.47292 34.9977 9.54264C36.8632 11.6124 37.371 14.4327 36.5707 16.9054C36.3113 17.7112 36.7528 18.5722 37.5587 18.8316C38.3645 19.091 39.2255 18.6494 39.4849 17.8491V17.8436C40.6108 14.372 39.8988 10.4037 37.2717 7.49499Z" fill="#212121"/>
<path d="M33.2371 11.1377C31.9566 9.71921 30.069 9.17832 28.3304 9.55363C27.6185 9.70265 27.1659 10.4091 27.3149 11.1211C27.4694 11.8331 28.1704 12.2857 28.8768 12.1311C29.7268 11.949 30.6541 12.2139 31.2777 12.9038C31.9014 13.5993 32.0725 14.5431 31.8021 15.3709C31.5813 16.0609 31.9566 16.806 32.652 17.0322C33.3475 17.253 34.087 16.8777 34.3133 16.1823C34.8597 14.4879 34.5175 12.5561 33.2371 11.1377Z" fill="#212121"/>
<path d="M17.1705 26.161C16.9387 26.5584 16.4254 26.746 16.028 26.5805C15.6306 26.4204 15.5092 25.9733 15.7355 25.587C15.9673 25.2006 16.4585 25.013 16.8504 25.1675C17.2478 25.311 17.3913 25.7581 17.1705 26.161ZM15.0566 28.8654C14.4164 29.8865 13.0421 30.3336 12.01 29.8644C10.9944 29.4008 10.6909 28.2142 11.3311 27.2152C11.9658 26.2217 13.2904 25.7802 14.317 26.2107C15.3546 26.6577 15.6858 27.8333 15.0566 28.8654ZM17.463 21.6352C14.3115 20.8128 10.7516 22.3858 9.38279 25.162C7.98641 27.9934 9.33863 31.1394 12.5177 32.166C15.8183 33.2312 19.7038 31.5975 21.056 28.5453C22.3917 25.5539 20.7249 22.4796 17.463 21.6352Z" fill="#212121"/>
</svg>
