<svg width="40" height="40" viewBox="0 0 40 40" fill="none" xmlns="http://www.w3.org/2000/svg">
<g clip-path="url(#clip0_3577_163)">
<path d="M34.4514 10.6905C34.307 10.1243 33.8966 9.6968 33.4273 9.5657C32.597 9.332 28.55 8.8 20 8.8C11.45 8.8 7.4068 9.332 6.5689 9.5657C6.1053 9.6949 5.6949 10.1224 5.5486 10.6905C5.3415 11.4961 4.8 14.8724 4.8 20.2C4.8 25.5276 5.3415 28.902 5.5486 29.7114C5.693 30.2757 6.1034 30.7032 6.5708 30.8324C7.4068 31.068 11.45 31.6 20 31.6C28.55 31.6 32.5951 31.068 33.4311 30.8343C33.8947 30.7051 34.3051 30.2776 34.4514 29.7095C34.6585 28.9039 35.2 25.52 35.2 20.2C35.2 14.88 34.6585 11.498 34.4514 10.6905ZM38.1317 9.7462C39 13.132 39 20.2 39 20.2C39 20.2 39 27.268 38.1317 30.6538C37.6491 32.5253 36.2374 33.9978 34.4495 34.4956C31.2024 35.4 20 35.4 20 35.4C20 35.4 8.8033 35.4 5.5505 34.4956C3.755 33.9902 2.3452 32.5196 1.8683 30.6538C1 27.268 1 20.2 1 20.2C1 20.2 1 13.132 1.8683 9.7462C2.3509 7.8747 3.7626 6.4022 5.5505 5.9044C8.8033 5 20 5 20 5C20 5 31.2024 5 34.4495 5.9044C36.245 6.4098 37.6548 7.8804 38.1317 9.7462ZM16.2 26.85V13.55L27.6 20.2L16.2 26.85Z" fill="#212121"/>
</g>
<defs>
<clipPath id="clip0_3577_163">
<rect width="40" height="40" fill="white"/>
</clipPath>
</defs>
</svg>
