<svg xmlns="http://www.w3.org/2000/svg" width="36" height="36" viewBox="0 0 36 36" fill="none">
  <g filter="url(#filter0_d_2317_15031)">
    <circle cx="18" cy="18" r="14" fill="white"/>
  </g>
  <mask id="mask0_2317_15031" style="mask-type:alpha" maskUnits="userSpaceOnUse" x="7" y="7" width="22" height="22">
    <rect x="7.5" y="7.5" width="21" height="21" fill="#D9D9D9"/>
  </mask>
  <g mask="url(#mask0_2317_15031)">
    <path d="M17.6499 17.9999L20.7124 21.0624C20.9749 21.3249 21.1062 21.6457 21.1062 22.0249C21.1062 22.4041 20.9749 22.7249 20.7124 22.9874C20.4499 23.2499 20.1291 23.3812 19.7499 23.3812C19.3707 23.3812 19.0499 23.2499 18.7874 22.9874L14.7843 18.9843C14.653 18.853 14.5509 18.6999 14.478 18.5249C14.4051 18.3499 14.3687 18.1749 14.3687 17.9999C14.3687 17.8249 14.4051 17.6499 14.478 17.4749C14.5509 17.2999 14.653 17.1468 14.7843 17.0155L18.7874 13.0124C19.0499 12.7499 19.3707 12.6187 19.7499 12.6187C20.1291 12.6187 20.4499 12.7499 20.7124 13.0124C20.9749 13.2749 21.1062 13.5957 21.1062 13.9749C21.1062 14.3541 20.9749 14.6749 20.7124 14.9374L17.6499 17.9999Z" fill="black"/>
  </g>
  <defs>
    <filter id="filter0_d_2317_15031" x="0" y="0" width="36" height="36" filterUnits="userSpaceOnUse" color-interpolation-filters="sRGB">
      <feFlood flood-opacity="0" result="BackgroundImageFix"/>
      <feColorMatrix in="SourceAlpha" type="matrix" values="0 0 0 0 0 0 0 0 0 0 0 0 0 0 0 0 0 0 127 0" result="hardAlpha"/>
      <feOffset/>
      <feGaussianBlur stdDeviation="2"/>
      <feComposite in2="hardAlpha" operator="out"/>
      <feColorMatrix type="matrix" values="0 0 0 0 0 0 0 0 0 0 0 0 0 0 0 0 0 0 0.25 0"/>
      <feBlend mode="normal" in2="BackgroundImageFix" result="effect1_dropShadow_2317_15031"/>
      <feBlend mode="normal" in="SourceGraphic" in2="effect1_dropShadow_2317_15031" result="shape"/>
    </filter>
  </defs>
</svg>
